# xmcd
#
# Track frame offsets:
#	182
#	29045
#	59437
#	92685
#	116705
#	135515
#	165362
#
# Disc length: 2877 seconds
#
# Revision: 4
# Processed by: cddbd v1.5.1PL0 Copyright (c) Steve Scherf et al.
# Submitted via: audiograbber 1.83.01
#
DISCID=590b3b07
DTITLE=Ols School Rarities - The Electro Jams
DYEAR=1900
DGENRE=
TTITLE0=The Micronawts - Smurf across thesmurf
TTITLE1=Maximus Three - Rock it out
TTITLE2=The Incredible Fly - The Incredible Fly
TTITLE3=Teletron - What Time?
TTITLE4=Barry Boulevard - Barry´s Routine
TTITLE5=BEAch Boy - Verticle Lines
TTITLE6=Spoonie Gee - what is this?
EXTD=
EXTT0=
EXTT1=
EXTT2=
EXTT3=
EXTT4=
EXTT5=
EXTT6=
PLAYORDER=
